<svg id="add_white_icon" xmlns="http://www.w3.org/2000/svg" xmlns:xlink="http://www.w3.org/1999/xlink" width="24" height="24" viewBox="0 0 24 24">
  <defs>
    <clipPath id="clip-path">
      <rect id="사각형_163" data-name="사각형 163" width="24" height="24" transform="translate(156 88)" fill="#cbcbcb"/>
    </clipPath>
  </defs>
  <path id="패스_32" data-name="패스 32" d="M12,0A12,12,0,1,1,0,12,12,12,0,0,1,12,0Z" fill="#fff"/>
  <g id="마스크_그룹_55" data-name="마스크 그룹 55" transform="translate(-156 -88)" clip-path="url(#clip-path)">
    <path id="add_circle_24dp_191919_FILL0_wght200_GRAD0_opsz24" d="M15.333-15.333v4.667a.644.644,0,0,0,.192.475A.647.647,0,0,0,16-10a.643.643,0,0,0,.475-.192.646.646,0,0,0,.191-.475v-4.667h4.667a.644.644,0,0,0,.475-.192A.647.647,0,0,0,22-16a.643.643,0,0,0-.192-.475.646.646,0,0,0-.475-.191H16.667v-4.667a.644.644,0,0,0-.192-.475A.647.647,0,0,0,16-22a.643.643,0,0,0-.475.192.646.646,0,0,0-.191.475v4.667H10.667a.644.644,0,0,0-.475.192A.647.647,0,0,0,10-16a.643.643,0,0,0,.192.475.646.646,0,0,0,.475.191ZM16-4a11.7,11.7,0,0,1-4.68-.945A12.128,12.128,0,0,1,7.512-7.509a12.108,12.108,0,0,1-2.566-3.809A11.669,11.669,0,0,1,4-16a11.7,11.7,0,0,1,.945-4.68,12.128,12.128,0,0,1,2.564-3.812,12.108,12.108,0,0,1,3.809-2.566A11.669,11.669,0,0,1,16-28a11.7,11.7,0,0,1,4.68.945,12.128,12.128,0,0,1,3.812,2.564,12.108,12.108,0,0,1,2.566,3.809A11.669,11.669,0,0,1,28-16a11.7,11.7,0,0,1-.945,4.68,12.128,12.128,0,0,1-2.564,3.812,12.108,12.108,0,0,1-3.809,2.566A11.669,11.669,0,0,1,16-4Zm0-1.333a10.3,10.3,0,0,0,7.567-3.1A10.3,10.3,0,0,0,26.667-16a10.3,10.3,0,0,0-3.1-7.567A10.3,10.3,0,0,0,16-26.667a10.3,10.3,0,0,0-7.567,3.1A10.3,10.3,0,0,0,5.333-16a10.3,10.3,0,0,0,3.1,7.567A10.3,10.3,0,0,0,16-5.333ZM16-16Z" transform="translate(152 116)" fill="#191919"/>
  </g>
  <g id="패스_33" data-name="패스 33" fill="none">
    <path d="M12,0A12,12,0,1,1,0,12,12,12,0,0,1,12,0Z" stroke="none"/>
    <path d="M 12 2 C 6.485979080200195 2 2 6.485979080200195 2 12 C 2 17.51401901245117 6.485979080200195 22 12 22 C 17.51401901245117 22 22 17.51401901245117 22 12 C 22 6.485979080200195 17.51401901245117 2 12 2 M 12 0 C 18.62742042541504 0 24 5.372579574584961 24 12 C 24 18.62742042541504 18.62742042541504 24 12 24 C 5.372579574584961 24 0 18.62742042541504 0 12 C 0 5.372579574584961 5.372579574584961 0 12 0 Z" stroke="none" fill="#fff"/>
  </g>
  <g id="타원_14" data-name="타원 14" transform="translate(23 23) rotate(180)" fill="none" stroke="#191919" stroke-width="1">
    <circle cx="11" cy="11" r="11" stroke="none"/>
    <circle cx="11" cy="11" r="11.5" fill="none"/>
  </g>
</svg>
