<svg xmlns="http://www.w3.org/2000/svg" xmlns:xlink="http://www.w3.org/1999/xlink" width="24" height="24" viewBox="0 0 24 24">
  <defs>
    <clipPath id="clip-path">
      <rect id="사각형_118" data-name="사각형 118" width="24" height="24" transform="translate(123 44)" fill="#cbcbcb"/>
    </clipPath>
  </defs>
  <g id="그룹_75" data-name="그룹 75" transform="translate(-200 -88)">
    <g id="그룹_63" data-name="그룹 63" transform="translate(88 7)">
      <path id="패스_13" data-name="패스 13" d="M12,0A12,12,0,1,1,0,12,12,12,0,0,1,12,0Z" transform="translate(112 81)" fill="#fff"/>
      <g id="마스크_그룹_37" data-name="마스크 그룹 37" transform="translate(-11 37)" clip-path="url(#clip-path)">
        <path id="arrow_circle_left_16dp_5F6368_FILL0_wght200_GRAD0_opsz20" d="M14.844-16.186h5.677a.528.528,0,0,0,.39-.159.535.535,0,0,0,.158-.393.557.557,0,0,0-.158-.4.518.518,0,0,0-.39-.165H14.844l2.324-2.324a.54.54,0,0,0,.2-.389.568.568,0,0,0-.2-.4.568.568,0,0,0-.4-.2.54.54,0,0,0-.389.2l-2.989,2.988a.943.943,0,0,0-.3.686.911.911,0,0,0,.3.678l2.984,2.984a.455.455,0,0,0,.393.165.727.727,0,0,0,.393-.227.568.568,0,0,0,.2-.4.541.541,0,0,0-.2-.389ZM16.758-4.744a11.732,11.732,0,0,1-4.664-.936A12.1,12.1,0,0,1,8.263-8.259a12.087,12.087,0,0,1-2.581-3.827,11.715,11.715,0,0,1-.937-4.669,11.63,11.63,0,0,1,.936-4.656,12.158,12.158,0,0,1,2.579-3.815,12.087,12.087,0,0,1,3.827-2.581,11.715,11.715,0,0,1,4.669-.937,11.63,11.63,0,0,1,4.656.936,12.158,12.158,0,0,1,3.815,2.579,12.113,12.113,0,0,1,2.581,3.819,11.635,11.635,0,0,1,.937,4.652,11.732,11.732,0,0,1-.936,4.664,12.1,12.1,0,0,1-2.579,3.832A12.113,12.113,0,0,1,21.41-5.682,11.635,11.635,0,0,1,16.758-4.744ZM16.744-5.86a10.5,10.5,0,0,0,7.709-3.174,10.5,10.5,0,0,0,3.174-7.709,10.5,10.5,0,0,0-3.174-7.709,10.5,10.5,0,0,0-7.709-3.174,10.5,10.5,0,0,0-7.709,3.174A10.5,10.5,0,0,0,5.86-16.744,10.5,10.5,0,0,0,9.035-9.035,10.5,10.5,0,0,0,16.744-5.86ZM16.744-16.744Z" transform="translate(118.256 72.744)" fill="#191919"/>
      </g>
    </g>
  </g>
</svg>
