<svg id="calendar_active_icon" xmlns="http://www.w3.org/2000/svg" xmlns:xlink="http://www.w3.org/1999/xlink" width="24" height="24" viewBox="0 0 24 24">
  <defs>
    <clipPath id="clip-path">
      <rect id="사각형_184" data-name="사각형 184" width="24" height="24" transform="translate(402 924)" fill="#cbcbcb"/>
    </clipPath>
  </defs>
  <g id="마스크_그룹_73" data-name="마스크 그룹 73" transform="translate(-402 -924)" clip-path="url(#clip-path)">
    <path id="calendar_today_24dp_191919_FILL1_wght200_GRAD0_opsz24" d="M7.393-3.949a2.06,2.06,0,0,1-1.518-.609,2.06,2.06,0,0,1-.609-1.518v-16.81A2.06,2.06,0,0,1,5.875-24.4a2.06,2.06,0,0,1,1.518-.609H9.721V-27.24a.688.688,0,0,1,.2-.508.689.689,0,0,1,.507-.2.689.689,0,0,1,.508.2.689.689,0,0,1,.2.508v2.228h9.418v-2.278a.637.637,0,0,1,.189-.47.637.637,0,0,1,.47-.189.637.637,0,0,1,.469.189.637.637,0,0,1,.189.47v2.278H24.2a2.06,2.06,0,0,1,1.518.609,2.06,2.06,0,0,1,.609,1.518v16.81a2.06,2.06,0,0,1-.609,1.518,2.06,2.06,0,0,1-1.518.609Zm0-1.316H24.2a.774.774,0,0,0,.557-.253.774.774,0,0,0,.253-.557V-17.62H6.582V-6.076a.774.774,0,0,0,.253.557A.774.774,0,0,0,7.393-5.266Z" transform="translate(398.203 951.949)" fill="#191919"/>
  </g>
</svg>
