<svg id="delete_icon" xmlns="http://www.w3.org/2000/svg" width="20" height="20" viewBox="0 0 20 20">
  <g id="타원_29" data-name="타원 29" fill="#fff" stroke="#191919" stroke-width="1">
    <circle cx="10" cy="10" r="10" stroke="none"/>
    <circle cx="10" cy="10" r="9.5" fill="none"/>
  </g>
  <path id="cancel_20dp_191919_FILL0_wght200_GRAD0_opsz20" d="M146-813.322l3.775,3.774a.456.456,0,0,0,.328.16.535.535,0,0,0,.35-.189.514.514,0,0,0,.186-.339.51.51,0,0,0-.186-.337l-3.774-3.761,3.774-3.761a.518.518,0,0,0,.174-.326.471.471,0,0,0-.174-.35.514.514,0,0,0-.339-.186.514.514,0,0,0-.339.186L146-814.678l-3.775-3.774a.516.516,0,0,0-.313-.174.46.46,0,0,0-.335.174.514.514,0,0,0-.186.339.516.516,0,0,0,.183.339L145.322-814l-3.774,3.775a.445.445,0,0,0-.16.313.529.529,0,0,0,.189.335.514.514,0,0,0,.339.186.509.509,0,0,0,.336-.183Zm.012,9.322a9.777,9.777,0,0,1-3.886-.78,10.086,10.086,0,0,1-3.194-2.149,10.073,10.073,0,0,1-2.151-3.19,9.763,9.763,0,0,1-.781-3.891,9.692,9.692,0,0,1,.78-3.88,10.131,10.131,0,0,1,2.149-3.179,10.072,10.072,0,0,1,3.19-2.151,9.762,9.762,0,0,1,3.891-.781,9.692,9.692,0,0,1,3.88.78,10.132,10.132,0,0,1,3.179,2.149,10.094,10.094,0,0,1,2.151,3.183,9.7,9.7,0,0,1,.781,3.876,9.776,9.776,0,0,1-.78,3.886,10.086,10.086,0,0,1-2.149,3.194,10.094,10.094,0,0,1-3.183,2.151A9.7,9.7,0,0,1,146.012-804Zm-.012-.93a8.747,8.747,0,0,0,6.424-2.645A8.747,8.747,0,0,0,155.07-814a8.747,8.747,0,0,0-2.645-6.424A8.747,8.747,0,0,0,146-823.07a8.747,8.747,0,0,0-6.424,2.645A8.747,8.747,0,0,0,136.93-814a8.747,8.747,0,0,0,2.645,6.424A8.747,8.747,0,0,0,146-804.93ZM146-814Z" transform="translate(-136 824)" fill="#191919"/>
</svg>
