<svg id="drag_icon" xmlns="http://www.w3.org/2000/svg" xmlns:xlink="http://www.w3.org/1999/xlink" width="10" height="10" viewBox="0 0 10 10">
  <defs>
    <clipPath id="clip-path">
      <rect id="사각형_113" data-name="사각형 113" width="10" height="10" transform="translate(114 348)" fill="#cbcbcb"/>
    </clipPath>
  </defs>
  <g id="마스크_그룹_35" data-name="마스크 그룹 35" transform="translate(-114 -348)" clip-path="url(#clip-path)">
    <path id="drag_handle_16dp_191919_FILL1_wght400_GRAD0_opsz20" d="M3.963-6.25a.615.615,0,0,1-.448-.179.6.6,0,0,1-.182-.443.612.612,0,0,1,.18-.446A.6.6,0,0,1,3.958-7.5H12.7a.615.615,0,0,1,.448.179.6.6,0,0,1,.182.443.612.612,0,0,1-.18.446.6.6,0,0,1-.445.182Zm0-2.917a.615.615,0,0,1-.448-.179.6.6,0,0,1-.182-.443.612.612,0,0,1,.18-.446.6.6,0,0,1,.445-.182H12.7a.615.615,0,0,1,.448.179.6.6,0,0,1,.182.443.612.612,0,0,1-.18.446.6.6,0,0,1-.445.182Z" transform="translate(110.667 361.333)" fill="#cbcbcb"/>
  </g>
</svg>
