<svg id="feed_active_icon" xmlns="http://www.w3.org/2000/svg" xmlns:xlink="http://www.w3.org/1999/xlink" width="24" height="24" viewBox="0 0 24 24">
  <defs>
    <clipPath id="clip-path">
      <rect id="사각형_188" data-name="사각형 188" width="24" height="24" transform="translate(212 134)" fill="#cbcbcb"/>
    </clipPath>
  </defs>
  <g id="마스크_그룹_77" data-name="마스크 그룹 77" transform="translate(-212 -134)" clip-path="url(#clip-path)">
    <path id="dashboard_24dp_191919_FILL1_wght200_GRAD0_opsz24" d="M21.458-22.5a1.171,1.171,0,0,1-.863-.345,1.193,1.193,0,0,1-.345-.881v-5.048a1.182,1.182,0,0,1,.351-.881A1.191,1.191,0,0,1,21.47-30h7.322a1.171,1.171,0,0,1,.863.345,1.193,1.193,0,0,1,.345.881v5.048a1.182,1.182,0,0,1-.351.881,1.191,1.191,0,0,1-.869.345ZM7.208-18a1.17,1.17,0,0,1-.863-.345A1.162,1.162,0,0,1,6-19.2v-9.6a1.15,1.15,0,0,1,.351-.855A1.191,1.191,0,0,1,7.22-30h7.322a1.17,1.17,0,0,1,.863.345,1.162,1.162,0,0,1,.345.855v9.6a1.15,1.15,0,0,1-.351.855A1.191,1.191,0,0,1,14.53-18H7.208ZM21.458-6a1.17,1.17,0,0,1-.863-.345A1.162,1.162,0,0,1,20.25-7.2v-9.6a1.15,1.15,0,0,1,.351-.855A1.191,1.191,0,0,1,21.47-18h7.322a1.17,1.17,0,0,1,.863.345A1.162,1.162,0,0,1,30-16.8v9.6a1.15,1.15,0,0,1-.351.855A1.191,1.191,0,0,1,28.78-6H21.458ZM7.208-6a1.171,1.171,0,0,1-.863-.345A1.193,1.193,0,0,1,6-7.226v-5.048a1.182,1.182,0,0,1,.351-.881A1.191,1.191,0,0,1,7.22-13.5h7.322a1.171,1.171,0,0,1,.863.345,1.193,1.193,0,0,1,.345.881v5.048a1.182,1.182,0,0,1-.351.881A1.191,1.191,0,0,1,14.53-6H7.208Z" transform="translate(206 164)" fill="#191919"/>
  </g>
</svg>
