<svg id="feed_icon" xmlns="http://www.w3.org/2000/svg" xmlns:xlink="http://www.w3.org/1999/xlink" width="24" height="24" viewBox="0 0 24 24">
  <defs>
    <clipPath id="clip-path">
      <rect id="사각형_187" data-name="사각형 187" width="24" height="24" transform="translate(183 134)" fill="#cbcbcb"/>
    </clipPath>
  </defs>
  <g id="마스크_그룹_76" data-name="마스크 그룹 76" transform="translate(-183 -134)" clip-path="url(#clip-path)">
    <path id="dashboard_24dp_191919_FILL0_wght200_GRAD0_opsz24" d="M20.25-23.726v-5.048a1.182,1.182,0,0,1,.351-.881A1.191,1.191,0,0,1,21.47-30h7.322a1.171,1.171,0,0,1,.863.345,1.193,1.193,0,0,1,.345.881v5.048a1.182,1.182,0,0,1-.351.881,1.191,1.191,0,0,1-.869.345H21.458a1.171,1.171,0,0,1-.863-.345A1.193,1.193,0,0,1,20.25-23.726ZM6-19.2v-9.6a1.15,1.15,0,0,1,.351-.855A1.191,1.191,0,0,1,7.22-30h7.322a1.17,1.17,0,0,1,.863.345,1.162,1.162,0,0,1,.345.855v9.6a1.15,1.15,0,0,1-.351.855A1.191,1.191,0,0,1,14.53-18H7.208a1.17,1.17,0,0,1-.863-.345A1.162,1.162,0,0,1,6-19.2Zm14.25,12v-9.6a1.15,1.15,0,0,1,.351-.855A1.191,1.191,0,0,1,21.47-18h7.322a1.17,1.17,0,0,1,.863.345A1.162,1.162,0,0,1,30-16.8v9.6a1.15,1.15,0,0,1-.351.855A1.191,1.191,0,0,1,28.78-6H21.458a1.17,1.17,0,0,1-.863-.345A1.162,1.162,0,0,1,20.25-7.2ZM6-7.226v-5.048a1.182,1.182,0,0,1,.351-.881A1.191,1.191,0,0,1,7.22-13.5h7.322a1.171,1.171,0,0,1,.863.345,1.193,1.193,0,0,1,.345.881v5.048a1.182,1.182,0,0,1-.351.881A1.191,1.191,0,0,1,14.53-6H7.208a1.171,1.171,0,0,1-.863-.345A1.193,1.193,0,0,1,6-7.226ZM7.5-19.5h6.75v-9H7.5Zm14.25,12H28.5v-9H21.75Zm0-16.5H28.5v-4.5H21.75ZM7.5-7.5h6.75V-12H7.5ZM14.25-19.5ZM21.75-24ZM21.75-16.5ZM14.25-12Z" transform="translate(177 164)" fill="#191919"/>
  </g>
</svg>
