<svg id="floating_add_icon" xmlns="http://www.w3.org/2000/svg" xmlns:xlink="http://www.w3.org/1999/xlink" width="59" height="59" viewBox="0 0 59 59">
  <defs>
    <clipPath id="clip-path">
      <rect id="사각형_162" data-name="사각형 162" width="24" height="24" transform="translate(210 708)" fill="#fff" stroke="#707070" stroke-width="1"/>
    </clipPath>
  </defs>
  <g id="타원_37" data-name="타원 37" transform="translate(3 3)" fill="#fff" stroke="#191919" stroke-width="1">
    <circle cx="28" cy="28" r="28" stroke="none"/>
    <circle cx="28" cy="28" r="27.5" fill="none"/>
  </g>
  <g id="타원_38" data-name="타원 38" fill="currentColor" stroke="#191919" stroke-width="1">
    <circle cx="28" cy="28" r="28" stroke="none"/>
    <circle cx="28" cy="28" r="27.5" fill="none"/>
  </g>
  <g id="마스크_그룹_54" data-name="마스크 그룹 54" transform="translate(-194 -692)" clip-path="url(#clip-path)">
    <path id="add_24dp_191919_FILL0_wght200_GRAD0_opsz24" d="M23-23H13a.967.967,0,0,1-.712-.288A.97.97,0,0,1,12-24a.965.965,0,0,1,.288-.712A.969.969,0,0,1,13-25H23V-35a.967.967,0,0,1,.288-.713A.97.97,0,0,1,24-36a.965.965,0,0,1,.712.287A.969.969,0,0,1,25-35v10H35a.967.967,0,0,1,.713.288A.97.97,0,0,1,36-24a.965.965,0,0,1-.287.712A.969.969,0,0,1,35-23H25v10a.967.967,0,0,1-.288.712A.97.97,0,0,1,24-12a.965.965,0,0,1-.712-.288A.969.969,0,0,1,23-13Z" transform="translate(198 744)" fill="#191919"/>
  </g>
</svg>
