<svg id="floating_add_icon" xmlns="http://www.w3.org/2000/svg" xmlns:xlink="http://www.w3.org/1999/xlink" width="58" height="58" viewBox="0 0 58 58">
  <defs>
    <clipPath id="clip-path">
      <rect id="사각형_162" data-name="사각형 162" width="24" height="24" transform="translate(210 708)" fill="#fff" stroke="#707070" stroke-width="1"/>
    </clipPath>
  </defs>
  <g id="패스_8" data-name="패스 8" transform="translate(2 2)" fill="#fff">
    <path d="M 28 55.5 C 24.28730010986328 55.5 20.6859302520752 54.77296829223633 17.2959098815918 53.33911895751953 C 14.02128982543945 51.95407104492188 11.08028030395508 49.97114944458008 8.554559707641602 47.44543838500977 C 6.028850078582764 44.91971969604492 4.045929908752441 41.97871017456055 2.660880088806152 38.7040901184082 C 1.227030038833618 35.31407165527344 0.5 31.71269989013672 0.5 28 L 0.5 0.5 L 28 0.5 C 31.71269989013672 0.5 35.31407165527344 1.227030038833618 38.7040901184082 2.660880088806152 C 41.97871017456055 4.045929908752441 44.91971969604492 6.028850078582764 47.44543838500977 8.554559707641602 C 49.97114944458008 11.08028030395508 51.95407104492188 14.02128982543945 53.33911895751953 17.2959098815918 C 54.77296829223633 20.6859302520752 55.5 24.28730010986328 55.5 28 C 55.5 31.71269989013672 54.77296829223633 35.31407165527344 53.33911895751953 38.7040901184082 C 51.95407104492188 41.97871017456055 49.97114944458008 44.91971969604492 47.44543838500977 47.44543838500977 C 44.91971969604492 49.97114944458008 41.97871017456055 51.95407104492188 38.7040901184082 53.33911895751953 C 35.31407165527344 54.77296829223633 31.71269989013672 55.5 28 55.5 Z" stroke="none"/>
    <path d="M 1 1 L 1 28 C 1 31.64542007446289 1.713741302490234 35.18125915527344 3.121379852294922 38.50930786132812 C 4.481220245361328 41.72433090209961 6.42816162109375 44.61193084716797 8.908119201660156 47.09188079833984 C 11.38806915283203 49.57183837890625 14.27566909790039 51.51877975463867 17.49068832397461 52.87862014770508 C 20.81874084472656 54.28625869750977 24.35457992553711 55 28 55 C 31.64542007446289 55 35.18125915527344 54.28625869750977 38.50930786132812 52.87862014770508 C 41.72433090209961 51.51877975463867 44.61193084716797 49.57183837890625 47.09188079833984 47.09188079833984 C 49.57183837890625 44.61193084716797 51.51877975463867 41.72433090209961 52.87862014770508 38.50930786132812 C 54.28625869750977 35.18125915527344 55 31.64542007446289 55 28 C 55 24.35457992553711 54.28625869750977 20.81874084472656 52.87862014770508 17.49068832397461 C 51.51877975463867 14.27566909790039 49.57183837890625 11.38806915283203 47.09188079833984 8.908119201660156 C 44.61193084716797 6.42816162109375 41.72433090209961 4.481220245361328 38.50930786132812 3.121379852294922 C 35.18125915527344 1.713741302490234 31.64542007446289 1 28 1 L 1 1 M 0 0 L 28 0 C 43.46397018432617 0 56 12.53602981567383 56 28 C 56 43.46397018432617 43.46397018432617 56 28 56 C 12.53602981567383 56 0 43.46397018432617 0 28 L 0 0 Z" stroke="none" fill="#191919"/>
  </g>
  <g id="패스_6" data-name="패스 6" fill="#c9e2ff">
    <path d="M 28 55.5 C 24.28730010986328 55.5 20.6859302520752 54.77296829223633 17.2959098815918 53.33911895751953 C 14.02128982543945 51.95407104492188 11.08028030395508 49.97114944458008 8.554559707641602 47.44543838500977 C 6.028850078582764 44.91971969604492 4.045929908752441 41.97871017456055 2.660880088806152 38.7040901184082 C 1.227030038833618 35.31407165527344 0.5 31.71269989013672 0.5 28 L 0.5 0.5 L 28 0.5 C 31.71269989013672 0.5 35.31407165527344 1.227030038833618 38.7040901184082 2.660880088806152 C 41.97871017456055 4.045929908752441 44.91971969604492 6.028850078582764 47.44543838500977 8.554559707641602 C 49.97114944458008 11.08028030395508 51.95407104492188 14.02128982543945 53.33911895751953 17.2959098815918 C 54.77296829223633 20.6859302520752 55.5 24.28730010986328 55.5 28 C 55.5 31.71269989013672 54.77296829223633 35.31407165527344 53.33911895751953 38.7040901184082 C 51.95407104492188 41.97871017456055 49.97114944458008 44.91971969604492 47.44543838500977 47.44543838500977 C 44.91971969604492 49.97114944458008 41.97871017456055 51.95407104492188 38.7040901184082 53.33911895751953 C 35.31407165527344 54.77296829223633 31.71269989013672 55.5 28 55.5 Z" stroke="none"/>
    <path d="M 1 1 L 1 28 C 1 31.64542007446289 1.713741302490234 35.18125915527344 3.121379852294922 38.50930786132812 C 4.481220245361328 41.72433090209961 6.42816162109375 44.61193084716797 8.908119201660156 47.09188079833984 C 11.38806915283203 49.57183837890625 14.27566909790039 51.51877975463867 17.49068832397461 52.87862014770508 C 20.81874084472656 54.28625869750977 24.35457992553711 55 28 55 C 31.64542007446289 55 35.18125915527344 54.28625869750977 38.50930786132812 52.87862014770508 C 41.72433090209961 51.51877975463867 44.61193084716797 49.57183837890625 47.09188079833984 47.09188079833984 C 49.57183837890625 44.61193084716797 51.51877975463867 41.72433090209961 52.87862014770508 38.50930786132812 C 54.28625869750977 35.18125915527344 55 31.64542007446289 55 28 C 55 24.35457992553711 54.28625869750977 20.81874084472656 52.87862014770508 17.49068832397461 C 51.51877975463867 14.27566909790039 49.57183837890625 11.38806915283203 47.09188079833984 8.908119201660156 C 44.61193084716797 6.42816162109375 41.72433090209961 4.481220245361328 38.50930786132812 3.121379852294922 C 35.18125915527344 1.713741302490234 31.64542007446289 1 28 1 L 1 1 M 0 0 L 28 0 C 43.46397018432617 0 56 12.53602981567383 56 28 C 56 43.46397018432617 43.46397018432617 56 28 56 C 12.53602981567383 56 0 43.46397018432617 0 28 L 0 0 Z" stroke="none" fill="#191919"/>
  </g>
  <g id="마스크_그룹_54" data-name="마스크 그룹 54" transform="translate(-195 -693)" clip-path="url(#clip-path)">
    <path id="add_24dp_191919_FILL0_wght200_GRAD0_opsz24" d="M23-23H13a.967.967,0,0,1-.712-.288A.97.97,0,0,1,12-24a.965.965,0,0,1,.288-.712A.969.969,0,0,1,13-25H23V-35a.967.967,0,0,1,.288-.713A.97.97,0,0,1,24-36a.965.965,0,0,1,.712.287A.969.969,0,0,1,25-35v10H35a.967.967,0,0,1,.713.288A.97.97,0,0,1,36-24a.965.965,0,0,1-.287.712A.969.969,0,0,1,35-23H25v10a.967.967,0,0,1-.288.712A.97.97,0,0,1,24-12a.965.965,0,0,1-.712-.288A.969.969,0,0,1,23-13Z" transform="translate(198 744)" fill="#191919"/>
  </g>
</svg>
