<svg id="more_icon" xmlns="http://www.w3.org/2000/svg" xmlns:xlink="http://www.w3.org/1999/xlink" width="20" height="20" viewBox="0 0 20 20">
  <defs>
    <clipPath id="clip-path">
      <rect id="사각형_167" data-name="사각형 167" width="20" height="20" transform="translate(24 448)" fill="#cbcbcb"/>
    </clipPath>
  </defs>
  <circle id="타원_24" data-name="타원 24" cx="10" cy="10" r="10" transform="translate(20 20) rotate(180)" fill="#ffff8d"/>
  <g id="마스크_그룹_58" data-name="마스크 그룹 58" transform="translate(-24 -448)" clip-path="url(#clip-path)">
    <path id="pending_20dp_191919_FILL0_wght200_GRAD0_opsz20" d="M8.369-12.791a1.128,1.128,0,0,0,.824-.338,1.115,1.115,0,0,0,.341-.822,1.128,1.128,0,0,0-.338-.824,1.115,1.115,0,0,0-.822-.341,1.128,1.128,0,0,0-.824.338,1.115,1.115,0,0,0-.341.822,1.128,1.128,0,0,0,.338.824A1.115,1.115,0,0,0,8.369-12.791Zm5.581,0a1.128,1.128,0,0,0,.824-.338,1.115,1.115,0,0,0,.341-.822,1.128,1.128,0,0,0-.338-.824,1.115,1.115,0,0,0-.822-.341,1.128,1.128,0,0,0-.824.338,1.115,1.115,0,0,0-.341.822,1.128,1.128,0,0,0,.338.824A1.115,1.115,0,0,0,13.951-12.791Zm5.581,0a1.128,1.128,0,0,0,.824-.338,1.115,1.115,0,0,0,.341-.822,1.128,1.128,0,0,0-.338-.824,1.115,1.115,0,0,0-.822-.341,1.128,1.128,0,0,0-.824.338,1.115,1.115,0,0,0-.341.822,1.128,1.128,0,0,0,.338.824,1.115,1.115,0,0,0,.822.341ZM13.965-3.953a9.776,9.776,0,0,1-3.886-.78A10.086,10.086,0,0,1,6.885-6.883a10.073,10.073,0,0,1-2.151-3.19,9.763,9.763,0,0,1-.781-3.891,9.692,9.692,0,0,1,.78-3.88,10.131,10.131,0,0,1,2.149-3.179,10.073,10.073,0,0,1,3.19-2.151,9.763,9.763,0,0,1,3.891-.781,9.692,9.692,0,0,1,3.88.78,10.131,10.131,0,0,1,3.179,2.149,10.094,10.094,0,0,1,2.151,3.183,9.7,9.7,0,0,1,.781,3.876,9.776,9.776,0,0,1-.78,3.886,10.086,10.086,0,0,1-2.149,3.194,10.094,10.094,0,0,1-3.183,2.151,9.7,9.7,0,0,1-3.876.781Zm-.012-.93a8.747,8.747,0,0,0,6.424-2.645,8.747,8.747,0,0,0,2.645-6.424,8.747,8.747,0,0,0-2.645-6.424,8.747,8.747,0,0,0-6.424-2.645,8.747,8.747,0,0,0-6.424,2.645,8.747,8.747,0,0,0-2.645,6.424A8.747,8.747,0,0,0,7.529-7.529a8.747,8.747,0,0,0,6.424,2.645ZM13.953-13.953Z" transform="translate(20.047 471.953)" fill="#191919"/>
  </g>
  <circle id="타원_23" data-name="타원 23" cx="9" cy="9" r="9" transform="translate(19 19) rotate(180)" fill="none" stroke="#ffff8d" stroke-width="2"/>
  <g id="타원_25" data-name="타원 25" transform="translate(19 19) rotate(180)" fill="none" stroke="#191919" stroke-width="1">
    <circle cx="9" cy="9" r="9" stroke="none"/>
    <circle cx="9" cy="9" r="9.5" fill="none"/>
  </g>
</svg>
