<svg id="right_icon" xmlns="http://www.w3.org/2000/svg" xmlns:xlink="http://www.w3.org/1999/xlink" width="24" height="24" viewBox="0 0 24 24">
  <defs>
    <clipPath id="clip-path">
      <rect id="사각형_130" data-name="사각형 130" width="24" height="24" transform="translate(18 17)" fill="#cbcbcb"/>
    </clipPath>
  </defs>
  <g id="그룹_60" data-name="그룹 60" transform="translate(-117 -14)">
    <circle id="타원_9" data-name="타원 9" cx="12" cy="12" r="12" transform="translate(141 38) rotate(180)" fill="#c9e2ff"/>
    <g id="마스크_그룹_46" data-name="마스크 그룹 46" transform="translate(100 56) rotate(-90)" clip-path="url(#clip-path)">
      <path id="expand_circle_down_24dp_191919_FILL0_wght200_GRAD0_opsz24" d="M16-14.151l-3.654-3.654a.6.6,0,0,0-.452-.187.648.648,0,0,0-.466.187.573.573,0,0,0-.208.476.693.693,0,0,0,.208.475l3.818,3.818a1.034,1.034,0,0,0,.754.323,1.034,1.034,0,0,0,.754-.323l3.825-3.826a.675.675,0,0,0,.2-.472.58.58,0,0,0-.212-.472.624.624,0,0,0-.472-.178.675.675,0,0,0-.472.2ZM16-4a11.7,11.7,0,0,1-4.68-.945A12.128,12.128,0,0,1,7.512-7.509a12.108,12.108,0,0,1-2.566-3.809A11.669,11.669,0,0,1,4-16a11.7,11.7,0,0,1,.945-4.68,12.128,12.128,0,0,1,2.564-3.812,12.108,12.108,0,0,1,3.809-2.566A11.669,11.669,0,0,1,16-28a11.7,11.7,0,0,1,4.68.945,12.128,12.128,0,0,1,3.812,2.564,12.108,12.108,0,0,1,2.566,3.809A11.669,11.669,0,0,1,28-16a11.7,11.7,0,0,1-.945,4.68,12.128,12.128,0,0,1-2.564,3.812,12.108,12.108,0,0,1-3.809,2.566A11.669,11.669,0,0,1,16-4Zm0-1.333a10.3,10.3,0,0,0,7.567-3.1A10.3,10.3,0,0,0,26.667-16a10.3,10.3,0,0,0-3.1-7.567A10.3,10.3,0,0,0,16-26.667a10.3,10.3,0,0,0-7.567,3.1A10.3,10.3,0,0,0,5.333-16a10.3,10.3,0,0,0,3.1,7.567A10.3,10.3,0,0,0,16-5.333ZM16-16Z" transform="translate(14 45)" fill="#191919"/>
    </g>
    <circle id="타원_10" data-name="타원 10" cx="11" cy="11" r="11" transform="translate(140 37) rotate(180)" fill="none" stroke="#c9e2ff" stroke-width="2"/>
    <g id="타원_11" data-name="타원 11" transform="translate(140 37) rotate(180)" fill="none" stroke="#191919" stroke-width="1">
      <circle cx="11" cy="11" r="11" stroke="none"/>
      <circle cx="11" cy="11" r="11.5" fill="none"/>
    </g>
  </g>
</svg>
