<svg id="select_yellow_icon" xmlns="http://www.w3.org/2000/svg" xmlns:xlink="http://www.w3.org/1999/xlink" width="20" height="20" viewBox="0 0 20 20">
  <defs>
    <clipPath id="clip-path">
      <rect id="사각형_168" data-name="사각형 168" width="20" height="20" transform="translate(64 448)" fill="#cbcbcb"/>
    </clipPath>
  </defs>
  <path id="패스_36" data-name="패스 36" d="M10,0A10,10,0,1,1,0,10,10,10,0,0,1,10,0Z" transform="translate(20) rotate(90)" fill="#ffff8d"/>
  <g id="마스크_그룹_59" data-name="마스크 그룹 59" transform="translate(-448 84) rotate(-90)" clip-path="url(#clip-path)">
    <path id="expand_circle_down_20dp_191919_FILL0_wght200_GRAD0_opsz20" d="M13.953-12.458l-2.925-2.925a.469.469,0,0,0-.341-.163.392.392,0,0,0-.314.163.369.369,0,0,0-.152.323.494.494,0,0,0,.15.331l3.014,3.013a.789.789,0,0,0,.574.251.759.759,0,0,0,.565-.253l2.992-2.992a.546.546,0,0,0,.159-.335.406.406,0,0,0-.141-.353.384.384,0,0,0-.339-.127.547.547,0,0,0-.335.16Zm.012,8.5a9.776,9.776,0,0,1-3.886-.78A10.086,10.086,0,0,1,6.885-6.883a10.073,10.073,0,0,1-2.151-3.19,9.763,9.763,0,0,1-.781-3.891,9.692,9.692,0,0,1,.78-3.88,10.131,10.131,0,0,1,2.149-3.179,10.073,10.073,0,0,1,3.19-2.151,9.763,9.763,0,0,1,3.891-.781,9.692,9.692,0,0,1,3.88.78,10.131,10.131,0,0,1,3.179,2.149,10.094,10.094,0,0,1,2.151,3.183,9.7,9.7,0,0,1,.781,3.876,9.776,9.776,0,0,1-.78,3.886,10.086,10.086,0,0,1-2.149,3.194,10.094,10.094,0,0,1-3.183,2.151A9.7,9.7,0,0,1,13.965-3.953Zm-.012-.93a8.747,8.747,0,0,0,6.424-2.645,8.747,8.747,0,0,0,2.645-6.424,8.747,8.747,0,0,0-2.645-6.424,8.747,8.747,0,0,0-6.424-2.645,8.747,8.747,0,0,0-6.424,2.645,8.747,8.747,0,0,0-2.645,6.424A8.747,8.747,0,0,0,7.529-7.529,8.747,8.747,0,0,0,13.953-4.884ZM13.953-13.953Z" transform="translate(60.047 471.953)" fill="#191919"/>
  </g>
  <path id="패스_37" data-name="패스 37" d="M9,0A9,9,0,1,1,0,9,9,9,0,0,1,9,0Z" transform="translate(19 1) rotate(90)" fill="none" stroke="#ffff8d" stroke-width="2"/>
  <g id="타원_28" data-name="타원 28" transform="translate(19 1) rotate(90)" fill="none" stroke="#191919" stroke-width="1">
    <circle cx="9" cy="9" r="9" stroke="none"/>
    <circle cx="9" cy="9" r="9.5" fill="none"/>
  </g>
</svg>
