<svg id="setting_icon" xmlns="http://www.w3.org/2000/svg" xmlns:xlink="http://www.w3.org/1999/xlink" width="24" height="24" viewBox="0 0 24 24">
  <defs>
    <clipPath id="clip-path">
      <rect id="사각형_175" data-name="사각형 175" width="24" height="24" transform="translate(483 880)" fill="#cbcbcb"/>
    </clipPath>
  </defs>
  <g id="마스크_그룹_67" data-name="마스크 그룹 67" transform="translate(-483 -880)" clip-path="url(#clip-path)">
    <path id="page_info_24dp_191919_FILL0_wght200_GRAD0_opsz24_1_" data-name="page_info_24dp_191919_FILL0_wght200_GRAD0_opsz24 (1)" d="M24.787-6.977a4.011,4.011,0,0,1-2.949-1.2,4.011,4.011,0,0,1-1.2-2.949,4.011,4.011,0,0,1,1.2-2.95,4.011,4.011,0,0,1,2.949-1.2,4.011,4.011,0,0,1,2.949,1.2,4.011,4.011,0,0,1,1.2,2.95,4.011,4.011,0,0,1-1.2,2.949A4.011,4.011,0,0,1,24.787-6.977Zm0-1.412a2.649,2.649,0,0,0,1.94-.8,2.635,2.635,0,0,0,.805-1.937,2.649,2.649,0,0,0-.8-1.94,2.635,2.635,0,0,0-1.937-.805,2.649,2.649,0,0,0-1.94.8,2.636,2.636,0,0,0-.8,1.937,2.649,2.649,0,0,0,.8,1.94,2.635,2.635,0,0,0,1.937.805Zm-8.224-2.036h-8.8a.682.682,0,0,1-.5-.2.685.685,0,0,1-.2-.5.681.681,0,0,1,.2-.5.684.684,0,0,1,.5-.2h8.8a.683.683,0,0,1,.5.2.685.685,0,0,1,.2.5.681.681,0,0,1-.2.5.684.684,0,0,1-.5.2ZM9.095-18.6a4.011,4.011,0,0,1-2.949-1.2,4.011,4.011,0,0,1-1.2-2.95,4.011,4.011,0,0,1,1.2-2.949,4.011,4.011,0,0,1,2.949-1.2,4.011,4.011,0,0,1,2.949,1.2,4.011,4.011,0,0,1,1.2,2.949,4.011,4.011,0,0,1-1.2,2.95A4.011,4.011,0,0,1,9.095-18.6Zm0-1.412a2.649,2.649,0,0,0,1.94-.8,2.636,2.636,0,0,0,.8-1.937,2.649,2.649,0,0,0-.8-1.94A2.635,2.635,0,0,0,9.1-25.493a2.649,2.649,0,0,0-1.94.8,2.635,2.635,0,0,0-.805,1.937,2.649,2.649,0,0,0,.8,1.94,2.635,2.635,0,0,0,1.937.805Zm17.026-2.036h-8.8a.683.683,0,0,1-.5-.2.685.685,0,0,1-.2-.5.681.681,0,0,1,.2-.5.684.684,0,0,1,.5-.2h8.8a.682.682,0,0,1,.5.2.685.685,0,0,1,.2.5.681.681,0,0,1-.2.5A.684.684,0,0,1,26.118-22.045ZM24.787-11.131ZM9.095-22.751Z" transform="translate(478.059 908.941)" fill="#191919"/>
  </g>
</svg>
