<svg id="setting_active_icon" xmlns="http://www.w3.org/2000/svg" xmlns:xlink="http://www.w3.org/1999/xlink" width="24" height="24" viewBox="0 0 24 24">
  <defs>
    <clipPath id="clip-path">
      <rect id="사각형_176" data-name="사각형 176" width="24" height="24" transform="translate(433 875)" fill="#cbcbcb"/>
    </clipPath>
  </defs>
  <g id="마스크_그룹_66" data-name="마스크 그룹 66" transform="translate(-433 -875)" clip-path="url(#clip-path)">
    <path id="page_info_24dp_191919_FILL1_wght200_GRAD0_opsz24" d="M24.787-6.977a4.011,4.011,0,0,1-2.949-1.2,4.011,4.011,0,0,1-1.2-2.949,4.011,4.011,0,0,1,1.2-2.95,4.011,4.011,0,0,1,2.949-1.2,4.011,4.011,0,0,1,2.949,1.2,4.011,4.011,0,0,1,1.2,2.95,4.011,4.011,0,0,1-1.2,2.949A4.011,4.011,0,0,1,24.787-6.977Zm-8.226-3.448h-8.8a.682.682,0,0,1-.5-.2.685.685,0,0,1-.2-.5.681.681,0,0,1,.2-.5.684.684,0,0,1,.5-.2h8.8a.683.683,0,0,1,.5.2.685.685,0,0,1,.2.5.681.681,0,0,1-.2.5.684.684,0,0,1-.5.2ZM9.095-18.6a4.011,4.011,0,0,1-2.949-1.2,4.011,4.011,0,0,1-1.2-2.95,4.011,4.011,0,0,1,1.2-2.949,4.011,4.011,0,0,1,2.949-1.2,4.011,4.011,0,0,1,2.949,1.2,4.011,4.011,0,0,1,1.2,2.949,4.011,4.011,0,0,1-1.2,2.95A4.011,4.011,0,0,1,9.095-18.6Zm17.023-3.448h-8.8a.683.683,0,0,1-.5-.2.685.685,0,0,1-.2-.5.681.681,0,0,1,.2-.5.684.684,0,0,1,.5-.2h8.8a.682.682,0,0,1,.5.2.685.685,0,0,1,.2.5.681.681,0,0,1-.2.5A.684.684,0,0,1,26.118-22.045Z" transform="translate(428.059 903.941)" fill="#191919"/>
  </g>
</svg>
